<mxfile host="drawio-plugin" agent="Mozilla/5.0 (Windows NT 10.0; Win64; x64) AppleWebKit/537.36 (KHTML, like Gecko) Chrome/122.0.0.0 Safari/537.36" modified="2025-04-14T09:59:53.471Z" etag="Y49dkn1eoHp5POyZ4O0V" version="22.1.22" type="embed" pages="2">
  <diagram name="Page-1" id="A7I952BWp3ezTdQEPXAF">
    <mxGraphModel dx="-41" dy="893" grid="1" gridSize="10" guides="1" tooltips="1" connect="1" arrows="1" fold="1" page="1" pageScale="1" pageWidth="827" pageHeight="1169" math="0" shadow="0">
      <root>
        <mxCell id="0" />
        <mxCell id="1" parent="0" />
        <mxCell id="ZUahemIaD69n3P-7ap7B-1" style="edgeStyle=orthogonalEdgeStyle;rounded=0;orthogonalLoop=1;jettySize=auto;html=1;entryX=0;entryY=0.5;entryDx=0;entryDy=0;fontSize=13;" edge="1" parent="1" source="ZUahemIaD69n3P-7ap7B-2" target="ZUahemIaD69n3P-7ap7B-9">
          <mxGeometry relative="1" as="geometry" />
        </mxCell>
        <mxCell id="ZUahemIaD69n3P-7ap7B-2" value="Front-End" style="rounded=0;whiteSpace=wrap;html=1;fontSize=13;" vertex="1" parent="1">
          <mxGeometry x="2030" y="270" width="110" height="200" as="geometry" />
        </mxCell>
        <mxCell id="ZUahemIaD69n3P-7ap7B-3" value="" style="edgeStyle=orthogonalEdgeStyle;rounded=0;orthogonalLoop=1;jettySize=auto;html=1;fontSize=13;" edge="1" parent="1" source="ZUahemIaD69n3P-7ap7B-4" target="ZUahemIaD69n3P-7ap7B-2">
          <mxGeometry relative="1" as="geometry" />
        </mxCell>
        <mxCell id="ZUahemIaD69n3P-7ap7B-4" value="User" style="shape=umlActor;verticalLabelPosition=bottom;verticalAlign=top;html=1;outlineConnect=0;fontSize=13;" vertex="1" parent="1">
          <mxGeometry x="1920" y="340" width="30" height="60" as="geometry" />
        </mxCell>
        <mxCell id="ZUahemIaD69n3P-7ap7B-5" style="edgeStyle=orthogonalEdgeStyle;rounded=0;orthogonalLoop=1;jettySize=auto;html=1;entryX=0.5;entryY=0;entryDx=0;entryDy=0;fontSize=13;" edge="1" parent="1" source="ZUahemIaD69n3P-7ap7B-6" target="ZUahemIaD69n3P-7ap7B-11">
          <mxGeometry relative="1" as="geometry" />
        </mxCell>
        <mxCell id="ZUahemIaD69n3P-7ap7B-6" value="Import XML Microservice&lt;div&gt;(Parsing)&lt;/div&gt;" style="rounded=0;whiteSpace=wrap;html=1;fontSize=13;" vertex="1" parent="1">
          <mxGeometry x="2686" y="270" width="110" height="200" as="geometry" />
        </mxCell>
        <mxCell id="ZUahemIaD69n3P-7ap7B-7" value="The size of the file is&amp;nbsp;&lt;div&gt;more than 50 MB&lt;/div&gt;" style="text;html=1;align=center;verticalAlign=middle;resizable=0;points=[];autosize=1;strokeColor=none;fillColor=none;fontSize=13;" vertex="1" parent="1">
          <mxGeometry x="2405" y="480" width="150" height="40" as="geometry" />
        </mxCell>
        <mxCell id="ZUahemIaD69n3P-7ap7B-8" style="edgeStyle=orthogonalEdgeStyle;rounded=0;orthogonalLoop=1;jettySize=auto;html=1;entryX=0;entryY=0.5;entryDx=0;entryDy=0;fontSize=13;" edge="1" parent="1" source="ZUahemIaD69n3P-7ap7B-9" target="ZUahemIaD69n3P-7ap7B-6">
          <mxGeometry relative="1" as="geometry" />
        </mxCell>
        <mxCell id="ZUahemIaD69n3P-7ap7B-9" value="FTP service." style="rounded=0;whiteSpace=wrap;html=1;fontSize=13;" vertex="1" parent="1">
          <mxGeometry x="2425" y="270" width="110" height="200" as="geometry" />
        </mxCell>
        <mxCell id="ZUahemIaD69n3P-7ap7B-10" value="" style="edgeStyle=orthogonalEdgeStyle;rounded=0;orthogonalLoop=1;jettySize=auto;html=1;" edge="1" parent="1" source="ZUahemIaD69n3P-7ap7B-11" target="ZUahemIaD69n3P-7ap7B-24">
          <mxGeometry relative="1" as="geometry" />
        </mxCell>
        <mxCell id="ZUahemIaD69n3P-7ap7B-11" value="Persist microservice&amp;nbsp;" style="rounded=0;whiteSpace=wrap;html=1;fontSize=13;" vertex="1" parent="1">
          <mxGeometry x="2686" y="545" width="110" height="200" as="geometry" />
        </mxCell>
        <mxCell id="ZUahemIaD69n3P-7ap7B-12" value="Database" style="shape=cylinder3;whiteSpace=wrap;html=1;boundedLbl=1;backgroundOutline=1;size=15;fontSize=13;" vertex="1" parent="1">
          <mxGeometry x="2450" y="595" width="60" height="100" as="geometry" />
        </mxCell>
        <mxCell id="ZUahemIaD69n3P-7ap7B-13" style="edgeStyle=orthogonalEdgeStyle;rounded=0;orthogonalLoop=1;jettySize=auto;html=1;entryX=1;entryY=0.5;entryDx=0;entryDy=0;entryPerimeter=0;fontSize=13;" edge="1" parent="1" source="ZUahemIaD69n3P-7ap7B-11" target="ZUahemIaD69n3P-7ap7B-12">
          <mxGeometry relative="1" as="geometry" />
        </mxCell>
        <mxCell id="ZUahemIaD69n3P-7ap7B-14" value="The font-end will send the file as is,&amp;nbsp;&lt;div&gt;will not encode the file,&amp;nbsp;&lt;/div&gt;&lt;div&gt;the ftp service will give the file as is like xml&lt;/div&gt;" style="text;html=1;align=center;verticalAlign=middle;resizable=0;points=[];autosize=1;strokeColor=none;fillColor=none;fontSize=13;" vertex="1" parent="1">
          <mxGeometry x="2150" y="300" width="270" height="60" as="geometry" />
        </mxCell>
        <mxCell id="ZUahemIaD69n3P-7ap7B-15" value="Storage Layer&lt;div&gt;acts as a temporary storage&lt;/div&gt;" style="text;html=1;align=center;verticalAlign=middle;resizable=0;points=[];autosize=1;strokeColor=none;fillColor=none;fontSize=13;" vertex="1" parent="1">
          <mxGeometry x="2390" y="230" width="180" height="40" as="geometry" />
        </mxCell>
        <mxCell id="ZUahemIaD69n3P-7ap7B-16" value="The import-xml service will monitor&lt;div&gt;kafka to consume the file&lt;/div&gt;" style="text;html=1;align=center;verticalAlign=middle;resizable=0;points=[];autosize=1;strokeColor=none;fillColor=none;fontSize=13;" vertex="1" parent="1">
          <mxGeometry x="2631" y="230" width="220" height="40" as="geometry" />
        </mxCell>
        <mxCell id="ZUahemIaD69n3P-7ap7B-17" value="Here the file will be encoded,&amp;nbsp;&lt;div&gt;and produced to the topic.&lt;span style=&quot;background-color: transparent; color: light-dark(rgb(0, 0, 0), rgb(255, 255, 255));&quot;&gt;&amp;nbsp;&lt;/span&gt;&lt;/div&gt;&lt;div&gt;- Generate file&lt;span style=&quot;background-color: transparent; color: light-dark(rgb(0, 0, 0), rgb(255, 255, 255));&quot;&gt;Id&lt;/span&gt;&lt;/div&gt;" style="text;html=1;align=center;verticalAlign=middle;resizable=0;points=[];autosize=1;strokeColor=none;fillColor=none;fontSize=13;" vertex="1" parent="1">
          <mxGeometry x="2796" y="325" width="190" height="60" as="geometry" />
        </mxCell>
        <mxCell id="ZUahemIaD69n3P-7ap7B-18" value="Kafka" style="text;html=1;align=center;verticalAlign=middle;resizable=0;points=[];autosize=1;strokeColor=none;fillColor=none;fontSize=13;" vertex="1" parent="1">
          <mxGeometry x="2575" y="340" width="60" height="30" as="geometry" />
        </mxCell>
        <mxCell id="ZUahemIaD69n3P-7ap7B-19" value="FTP Upload" style="text;html=1;align=center;verticalAlign=middle;resizable=0;points=[];autosize=1;strokeColor=none;fillColor=none;fontSize=13;" vertex="1" parent="1">
          <mxGeometry x="2235" y="378" width="90" height="30" as="geometry" />
        </mxCell>
        <mxCell id="ZUahemIaD69n3P-7ap7B-20" value="Batch Processing" style="text;html=1;align=center;verticalAlign=middle;resizable=0;points=[];autosize=1;strokeColor=none;fillColor=none;fontSize=13;" vertex="1" parent="1">
          <mxGeometry x="2535" y="645" width="120" height="30" as="geometry" />
        </mxCell>
        <mxCell id="ZUahemIaD69n3P-7ap7B-21" value="Kafka&lt;div&gt;(Send Processed Data in Chunks)&lt;/div&gt;&lt;div&gt;each chunk have 3 things:&lt;/div&gt;&lt;div&gt;1- Chunk Id.&lt;/div&gt;&lt;div&gt;2- Chunk indexed&lt;span style=&quot;background-color: transparent; color: light-dark(rgb(0, 0, 0), rgb(255, 255, 255));&quot;&gt;.&lt;/span&gt;&lt;/div&gt;&lt;div&gt;3- Chunk Data {}.&lt;/div&gt;" style="text;html=1;align=center;verticalAlign=middle;resizable=0;points=[];autosize=1;strokeColor=none;fillColor=none;fontSize=13;" vertex="1" parent="1">
          <mxGeometry x="2801" y="460" width="220" height="110" as="geometry" />
        </mxCell>
        <mxCell id="ZUahemIaD69n3P-7ap7B-22" value="NoSQL&lt;div&gt;Using mongoDB&lt;/div&gt;" style="text;html=1;align=center;verticalAlign=middle;resizable=0;points=[];autosize=1;strokeColor=none;fillColor=none;" vertex="1" parent="1">
          <mxGeometry x="2425" y="695" width="110" height="40" as="geometry" />
        </mxCell>
        <mxCell id="ZUahemIaD69n3P-7ap7B-23" style="edgeStyle=orthogonalEdgeStyle;rounded=0;orthogonalLoop=1;jettySize=auto;html=1;entryX=0.5;entryY=1;entryDx=0;entryDy=0;" edge="1" parent="1" source="ZUahemIaD69n3P-7ap7B-24" target="ZUahemIaD69n3P-7ap7B-2">
          <mxGeometry relative="1" as="geometry" />
        </mxCell>
        <mxCell id="ZUahemIaD69n3P-7ap7B-24" value="Notification Microservice" style="rounded=0;whiteSpace=wrap;html=1;fontSize=13;" vertex="1" parent="1">
          <mxGeometry x="2686" y="820" width="110" height="200" as="geometry" />
        </mxCell>
        <mxCell id="ZUahemIaD69n3P-7ap7B-25" value="Kafka" style="text;html=1;align=center;verticalAlign=middle;resizable=0;points=[];autosize=1;strokeColor=none;fillColor=none;fontSize=13;" vertex="1" parent="1">
          <mxGeometry x="2686" y="490" width="60" height="30" as="geometry" />
        </mxCell>
        <mxCell id="ZUahemIaD69n3P-7ap7B-26" value="Kafka" style="text;html=1;align=center;verticalAlign=middle;resizable=0;points=[];autosize=1;strokeColor=none;fillColor=none;fontSize=13;" vertex="1" parent="1">
          <mxGeometry x="2675" y="770" width="60" height="30" as="geometry" />
        </mxCell>
        <mxCell id="ZUahemIaD69n3P-7ap7B-27" value="Kafka" style="text;html=1;align=center;verticalAlign=middle;resizable=0;points=[];autosize=1;strokeColor=none;fillColor=none;fontSize=13;" vertex="1" parent="1">
          <mxGeometry x="2585" y="880" width="60" height="30" as="geometry" />
        </mxCell>
        <mxCell id="ZUahemIaD69n3P-7ap7B-28" value="2- Produce a message" style="text;html=1;align=center;verticalAlign=middle;resizable=0;points=[];autosize=1;strokeColor=none;fillColor=none;fontSize=13;" vertex="1" parent="1">
          <mxGeometry x="2540" y="930" width="150" height="30" as="geometry" />
        </mxCell>
        <mxCell id="ZUahemIaD69n3P-7ap7B-29" value="Consume a message" style="text;html=1;align=center;verticalAlign=middle;resizable=0;points=[];autosize=1;strokeColor=none;fillColor=none;fontSize=13;" vertex="1" parent="1">
          <mxGeometry x="2085" y="515" width="150" height="30" as="geometry" />
        </mxCell>
        <mxCell id="ZUahemIaD69n3P-7ap7B-30" style="edgeStyle=orthogonalEdgeStyle;rounded=0;orthogonalLoop=1;jettySize=auto;html=1;entryX=0;entryY=0.5;entryDx=0;entryDy=0;entryPerimeter=0;" edge="1" parent="1" source="ZUahemIaD69n3P-7ap7B-24" target="ZUahemIaD69n3P-7ap7B-12">
          <mxGeometry relative="1" as="geometry">
            <Array as="points">
              <mxPoint x="2430" y="850" />
              <mxPoint x="2430" y="645" />
            </Array>
          </mxGeometry>
        </mxCell>
        <mxCell id="ZUahemIaD69n3P-7ap7B-31" value="1- Get log from database" style="text;html=1;align=center;verticalAlign=middle;resizable=0;points=[];autosize=1;strokeColor=none;fillColor=none;" vertex="1" parent="1">
          <mxGeometry x="2520" y="820" width="160" height="30" as="geometry" />
        </mxCell>
      </root>
    </mxGraphModel>
  </diagram>
  <diagram id="FMukNgz9mS5BPHTanflt" name="Page-2">
    <mxGraphModel dx="556" dy="766" grid="1" gridSize="10" guides="1" tooltips="1" connect="1" arrows="1" fold="1" page="1" pageScale="1" pageWidth="827" pageHeight="1169" math="0" shadow="0">
      <root>
        <mxCell id="0" />
        <mxCell id="1" parent="0" />
        <mxCell id="sdnrfWYncAE59vEHAe-q-1" style="edgeStyle=orthogonalEdgeStyle;rounded=0;orthogonalLoop=1;jettySize=auto;html=1;entryX=0;entryY=0.5;entryDx=0;entryDy=0;fontSize=13;" edge="1" parent="1" source="sdnrfWYncAE59vEHAe-q-2" target="sdnrfWYncAE59vEHAe-q-9">
          <mxGeometry relative="1" as="geometry" />
        </mxCell>
        <mxCell id="sdnrfWYncAE59vEHAe-q-2" value="Front-End" style="rounded=0;whiteSpace=wrap;html=1;fontSize=13;" vertex="1" parent="1">
          <mxGeometry x="1655" y="320" width="110" height="200" as="geometry" />
        </mxCell>
        <mxCell id="sdnrfWYncAE59vEHAe-q-3" value="" style="edgeStyle=orthogonalEdgeStyle;rounded=0;orthogonalLoop=1;jettySize=auto;html=1;fontSize=13;" edge="1" parent="1" source="sdnrfWYncAE59vEHAe-q-4" target="sdnrfWYncAE59vEHAe-q-2">
          <mxGeometry relative="1" as="geometry" />
        </mxCell>
        <mxCell id="sdnrfWYncAE59vEHAe-q-4" value="User" style="shape=umlActor;verticalLabelPosition=bottom;verticalAlign=top;html=1;outlineConnect=0;fontSize=13;" vertex="1" parent="1">
          <mxGeometry x="1545" y="390" width="30" height="60" as="geometry" />
        </mxCell>
        <mxCell id="sdnrfWYncAE59vEHAe-q-5" style="edgeStyle=orthogonalEdgeStyle;rounded=0;orthogonalLoop=1;jettySize=auto;html=1;entryX=0.5;entryY=0;entryDx=0;entryDy=0;fontSize=13;" edge="1" parent="1" source="sdnrfWYncAE59vEHAe-q-6" target="sdnrfWYncAE59vEHAe-q-11">
          <mxGeometry relative="1" as="geometry" />
        </mxCell>
        <mxCell id="sdnrfWYncAE59vEHAe-q-6" value="Import XML Microservice&lt;div&gt;(Parsing)&lt;/div&gt;" style="rounded=0;whiteSpace=wrap;html=1;fontSize=13;" vertex="1" parent="1">
          <mxGeometry x="2311" y="320" width="110" height="200" as="geometry" />
        </mxCell>
        <mxCell id="sdnrfWYncAE59vEHAe-q-7" value="The size of the file is&amp;nbsp;&lt;div&gt;more than 50 MB&lt;/div&gt;" style="text;html=1;align=center;verticalAlign=middle;resizable=0;points=[];autosize=1;strokeColor=none;fillColor=none;fontSize=13;" vertex="1" parent="1">
          <mxGeometry x="2030" y="530" width="150" height="40" as="geometry" />
        </mxCell>
        <mxCell id="sdnrfWYncAE59vEHAe-q-8" style="edgeStyle=orthogonalEdgeStyle;rounded=0;orthogonalLoop=1;jettySize=auto;html=1;entryX=0;entryY=0.5;entryDx=0;entryDy=0;fontSize=13;" edge="1" parent="1" source="sdnrfWYncAE59vEHAe-q-9" target="sdnrfWYncAE59vEHAe-q-6">
          <mxGeometry relative="1" as="geometry" />
        </mxCell>
        <mxCell id="sdnrfWYncAE59vEHAe-q-9" value="FTP service." style="rounded=0;whiteSpace=wrap;html=1;fontSize=13;" vertex="1" parent="1">
          <mxGeometry x="2050" y="320" width="110" height="200" as="geometry" />
        </mxCell>
        <mxCell id="sdnrfWYncAE59vEHAe-q-10" value="" style="edgeStyle=orthogonalEdgeStyle;rounded=0;orthogonalLoop=1;jettySize=auto;html=1;" edge="1" parent="1" source="sdnrfWYncAE59vEHAe-q-11" target="sdnrfWYncAE59vEHAe-q-24">
          <mxGeometry relative="1" as="geometry" />
        </mxCell>
        <mxCell id="sdnrfWYncAE59vEHAe-q-11" value="Persist microservice&amp;nbsp;" style="rounded=0;whiteSpace=wrap;html=1;fontSize=13;" vertex="1" parent="1">
          <mxGeometry x="2311" y="595" width="110" height="200" as="geometry" />
        </mxCell>
        <mxCell id="sdnrfWYncAE59vEHAe-q-12" value="Database" style="shape=cylinder3;whiteSpace=wrap;html=1;boundedLbl=1;backgroundOutline=1;size=15;fontSize=13;" vertex="1" parent="1">
          <mxGeometry x="2075" y="645" width="60" height="100" as="geometry" />
        </mxCell>
        <mxCell id="sdnrfWYncAE59vEHAe-q-13" style="edgeStyle=orthogonalEdgeStyle;rounded=0;orthogonalLoop=1;jettySize=auto;html=1;entryX=1;entryY=0.5;entryDx=0;entryDy=0;entryPerimeter=0;fontSize=13;" edge="1" parent="1" source="sdnrfWYncAE59vEHAe-q-11" target="sdnrfWYncAE59vEHAe-q-12">
          <mxGeometry relative="1" as="geometry" />
        </mxCell>
        <mxCell id="sdnrfWYncAE59vEHAe-q-14" value="The font-end will send the file as is,&amp;nbsp;&lt;div&gt;will not encode the file,&amp;nbsp;&lt;/div&gt;&lt;div&gt;the ftp service will give the file as is like xml&lt;/div&gt;" style="text;html=1;align=center;verticalAlign=middle;resizable=0;points=[];autosize=1;strokeColor=none;fillColor=none;fontSize=13;" vertex="1" parent="1">
          <mxGeometry x="1775" y="350" width="270" height="60" as="geometry" />
        </mxCell>
        <mxCell id="sdnrfWYncAE59vEHAe-q-15" value="Storage Layer&lt;div&gt;acts as a temporary storage&lt;/div&gt;" style="text;html=1;align=center;verticalAlign=middle;resizable=0;points=[];autosize=1;strokeColor=none;fillColor=none;fontSize=13;" vertex="1" parent="1">
          <mxGeometry x="2015" y="280" width="180" height="40" as="geometry" />
        </mxCell>
        <mxCell id="sdnrfWYncAE59vEHAe-q-16" value="The import-xml service will monitor&lt;div&gt;kafka to consume the file&lt;/div&gt;" style="text;html=1;align=center;verticalAlign=middle;resizable=0;points=[];autosize=1;strokeColor=none;fillColor=none;fontSize=13;" vertex="1" parent="1">
          <mxGeometry x="2256" y="280" width="220" height="40" as="geometry" />
        </mxCell>
        <mxCell id="sdnrfWYncAE59vEHAe-q-17" value="Here the file will be encoded,&amp;nbsp;&lt;div&gt;and produced to the topic&lt;/div&gt;" style="text;html=1;align=center;verticalAlign=middle;resizable=0;points=[];autosize=1;strokeColor=none;fillColor=none;fontSize=13;" vertex="1" parent="1">
          <mxGeometry x="2421" y="385" width="190" height="40" as="geometry" />
        </mxCell>
        <mxCell id="sdnrfWYncAE59vEHAe-q-18" value="Kafka" style="text;html=1;align=center;verticalAlign=middle;resizable=0;points=[];autosize=1;strokeColor=none;fillColor=none;fontSize=13;" vertex="1" parent="1">
          <mxGeometry x="2200" y="390" width="60" height="30" as="geometry" />
        </mxCell>
        <mxCell id="sdnrfWYncAE59vEHAe-q-19" value="FTP Upload" style="text;html=1;align=center;verticalAlign=middle;resizable=0;points=[];autosize=1;strokeColor=none;fillColor=none;fontSize=13;" vertex="1" parent="1">
          <mxGeometry x="1860" y="428" width="90" height="30" as="geometry" />
        </mxCell>
        <mxCell id="sdnrfWYncAE59vEHAe-q-20" value="Batch Processing" style="text;html=1;align=center;verticalAlign=middle;resizable=0;points=[];autosize=1;strokeColor=none;fillColor=none;fontSize=13;" vertex="1" parent="1">
          <mxGeometry x="2160" y="695" width="120" height="30" as="geometry" />
        </mxCell>
        <mxCell id="sdnrfWYncAE59vEHAe-q-21" value="Kafka&lt;div&gt;(Send Processed Data in Chunks)&lt;/div&gt;&lt;div&gt;each chunk have 3 things:&lt;/div&gt;&lt;div&gt;1- Chunk Id.&lt;/div&gt;&lt;div&gt;2- Chunk indexed.&lt;/div&gt;&lt;div&gt;3- Chunk Data {}.&lt;/div&gt;&lt;div&gt;&lt;br&gt;&lt;/div&gt;&lt;div&gt;At the end will send EndOfFile and&amp;nbsp;&lt;/div&gt;&lt;div&gt;this message will have:&lt;/div&gt;&lt;div&gt;1- Id&lt;/div&gt;&lt;div&gt;2-&amp;nbsp;expectedChunks.&lt;/div&gt;" style="text;html=1;align=center;verticalAlign=middle;resizable=0;points=[];autosize=1;strokeColor=none;fillColor=none;fontSize=13;" vertex="1" parent="1">
          <mxGeometry x="2421" y="470" width="230" height="190" as="geometry" />
        </mxCell>
        <mxCell id="sdnrfWYncAE59vEHAe-q-22" value="NoSQL&lt;div&gt;Using mongoDB&lt;/div&gt;" style="text;html=1;align=center;verticalAlign=middle;resizable=0;points=[];autosize=1;strokeColor=none;fillColor=none;" vertex="1" parent="1">
          <mxGeometry x="2050" y="745" width="110" height="40" as="geometry" />
        </mxCell>
        <mxCell id="sdnrfWYncAE59vEHAe-q-23" style="edgeStyle=orthogonalEdgeStyle;rounded=0;orthogonalLoop=1;jettySize=auto;html=1;entryX=0.5;entryY=1;entryDx=0;entryDy=0;" edge="1" parent="1" source="sdnrfWYncAE59vEHAe-q-24" target="sdnrfWYncAE59vEHAe-q-2">
          <mxGeometry relative="1" as="geometry" />
        </mxCell>
        <mxCell id="sdnrfWYncAE59vEHAe-q-24" value="Notification Microservice" style="rounded=0;whiteSpace=wrap;html=1;fontSize=13;" vertex="1" parent="1">
          <mxGeometry x="2311" y="870" width="110" height="200" as="geometry" />
        </mxCell>
        <mxCell id="sdnrfWYncAE59vEHAe-q-25" value="Kafka" style="text;html=1;align=center;verticalAlign=middle;resizable=0;points=[];autosize=1;strokeColor=none;fillColor=none;fontSize=13;" vertex="1" parent="1">
          <mxGeometry x="2311" y="540" width="60" height="30" as="geometry" />
        </mxCell>
        <mxCell id="sdnrfWYncAE59vEHAe-q-26" value="Kafka" style="text;html=1;align=center;verticalAlign=middle;resizable=0;points=[];autosize=1;strokeColor=none;fillColor=none;fontSize=13;" vertex="1" parent="1">
          <mxGeometry x="2300" y="820" width="60" height="30" as="geometry" />
        </mxCell>
        <mxCell id="sdnrfWYncAE59vEHAe-q-27" value="Kafka" style="text;html=1;align=center;verticalAlign=middle;resizable=0;points=[];autosize=1;strokeColor=none;fillColor=none;fontSize=13;" vertex="1" parent="1">
          <mxGeometry x="2210" y="930" width="60" height="30" as="geometry" />
        </mxCell>
        <mxCell id="sdnrfWYncAE59vEHAe-q-28" value="2- Produce a message" style="text;html=1;align=center;verticalAlign=middle;resizable=0;points=[];autosize=1;strokeColor=none;fillColor=none;fontSize=13;" vertex="1" parent="1">
          <mxGeometry x="2165" y="980" width="150" height="30" as="geometry" />
        </mxCell>
        <mxCell id="sdnrfWYncAE59vEHAe-q-29" value="Consume a message" style="text;html=1;align=center;verticalAlign=middle;resizable=0;points=[];autosize=1;strokeColor=none;fillColor=none;fontSize=13;" vertex="1" parent="1">
          <mxGeometry x="1710" y="565" width="150" height="30" as="geometry" />
        </mxCell>
        <mxCell id="sdnrfWYncAE59vEHAe-q-30" style="edgeStyle=orthogonalEdgeStyle;rounded=0;orthogonalLoop=1;jettySize=auto;html=1;entryX=0;entryY=0.5;entryDx=0;entryDy=0;entryPerimeter=0;" edge="1" parent="1" source="sdnrfWYncAE59vEHAe-q-24" target="sdnrfWYncAE59vEHAe-q-12">
          <mxGeometry relative="1" as="geometry">
            <Array as="points">
              <mxPoint x="2055" y="900" />
              <mxPoint x="2055" y="695" />
            </Array>
          </mxGeometry>
        </mxCell>
        <mxCell id="sdnrfWYncAE59vEHAe-q-31" value="1- Get log from database" style="text;html=1;align=center;verticalAlign=middle;resizable=0;points=[];autosize=1;strokeColor=none;fillColor=none;" vertex="1" parent="1">
          <mxGeometry x="2145" y="870" width="160" height="30" as="geometry" />
        </mxCell>
      </root>
    </mxGraphModel>
  </diagram>
</mxfile>
